<?xml version="1.0" encoding="iso-8859-1"?>
<!-- Generator: Adobe Illustrator 19.0.1, SVG Export Plug-In . SVG Version: 6.00 Build 0)  -->
<svg version="1.1" id="Layer_1" xmlns="http://www.w3.org/2000/svg" xmlns:xlink="http://www.w3.org/1999/xlink" x="0px" y="0px"
	 viewBox="0 0 47.65 8.867" style="enable-background:new 0 0 47.65 8.867; background-color:transparent;" xml:space="preserve">
<g>
	<polygon style="fill:#FFFFFF;" points="16.101,0.006 16.101,3.521 11.204,3.521 11.204,0.006 9.421,0.005 9.421,8.867 
		11.204,8.867 11.204,5.06 16.101,5.06 16.101,8.867 17.887,8.867 17.887,0.006 	"/>
	<polygon style="fill:#FFFFFF;" points="39.826,0.006 39.826,8.864 47.65,8.864 46.659,7.306 41.615,7.306 41.615,5.06 46.499,5.06 
		46.499,3.558 41.615,3.558 41.615,1.529 46.651,1.529 47.622,0.006 	"/>
	<path style="fill:#FFFFFF;" d="M2.792,0.004C0.937,0.004,0,1.132,0,2.773v3.308C0,7.98,1.207,8.867,2.783,8.867l5.595-0.001
		l-1.037-1.62H3.128c-0.895,0-1.284-0.323-1.284-1.325V2.92c0-0.968,0.328-1.346,1.308-1.346h4.232l0.996-1.57H2.792z"/>
	<path style="fill:#FFFFFF;" d="M32,0.002c-1.072,0-2.169,0.644-2.169,2.301v0.425c0,1.726,1.057,2.385,2.113,2.39h3.711
		c0.386,0,0.699,0.064,0.699,0.715l0,0.753c-0.01,0.584-0.302,0.719-0.711,0.719H30.76l-1,1.559h5.996
		c1.446,0,2.428-0.719,2.428-2.381v-0.61c0-1.607-0.912-2.366-2.326-2.366h-3.543c-0.393,0-0.666-0.107-0.666-0.689
		c0-0.001,0-0.613,0-0.613c0-0.496,0.188-0.676,0.646-0.676l4.648-0.002L37.914,0L32,0.002z"/>
	<path style="fill:#FFFFFF;" d="M23.949,1.846l1.615,3.683h-3.22L23.949,1.846z M23.069,0.007l-4.202,8.859h1.986l0.818-1.83h4.566
		l0.815,1.83h1.994l-4.211-8.859H23.069z"/>
</g>
</svg>
