<?xml version="1.0" encoding="utf-8"?>
<!-- Generator: Adobe Illustrator 23.0.1, SVG Export Plug-In . SVG Version: 6.00 Build 0)  -->
<svg version="1.1" id="Layer_1" xmlns="http://www.w3.org/2000/svg" xmlns:xlink="http://www.w3.org/1999/xlink" x="0px" y="0px"
	 viewBox="0 0 77.6 8.9" style="enable-background:new 0 0 77.6 8.9;background-color:transparent;" xml:space="preserve">
<style type="text/css">
	.st0{fill:#FFFFFF;}
</style>
<g>
	<path class="st0" d="M4.1,0.6c-1.1,0-1.9,0.3-2.5,1S0.7,3.2,0.7,4.4c0,1.2,0.3,2.2,0.9,2.8s1.4,1,2.5,1c0.7,0,1.4-0.1,2-0.3v0.5
		C5.5,8.7,4.7,8.8,3.9,8.8c-1.2,0-2.2-0.4-2.8-1.2S0,5.8,0,4.4c0-0.9,0.2-1.6,0.5-2.3s0.8-1.2,1.4-1.5S3.3,0,4.1,0
		c0.8,0,1.6,0.2,2.2,0.5L6.1,1C5.5,0.7,4.8,0.6,4.1,0.6z"/>
	<path class="st0" d="M8.5,5v3.7H7.9V0.1h2c1.1,0,1.8,0.2,2.4,0.6s0.8,1,0.8,1.8c0,0.6-0.2,1.1-0.5,1.5s-0.8,0.7-1.4,0.8l2.3,3.9
		h-0.7L10.7,5H8.5z M8.5,4.5h1.6c0.7,0,1.3-0.2,1.7-0.5s0.6-0.8,0.6-1.4c0-0.7-0.2-1.1-0.6-1.4s-1-0.4-1.9-0.4H8.5V4.5z"/>
	<path class="st0" d="M19.7,8.7h-4.7V0.1h4.7v0.6h-4.1v3.2h3.9v0.6h-3.9v3.7h4.1V8.7z"/>
	<path class="st0" d="M28.2,4.3c0,1.4-0.4,2.5-1.1,3.3s-1.9,1.1-3.3,1.1h-2.1V0.1H24c1.4,0,2.4,0.4,3.1,1.1S28.2,3,28.2,4.3z
		 M27.5,4.4c0-1.2-0.3-2.1-0.9-2.8s-1.5-0.9-2.7-0.9h-1.6v7.5h1.4C26.3,8.2,27.5,6.9,27.5,4.4z"/>
	<path class="st0" d="M30.2,8.7V0.1h0.6v8.6H30.2z"/>
	<path class="st0" d="M35.4,8.7h-0.6v-8H32V0.1h6.2v0.6h-2.8V8.7z"/>
	<path class="st0" d="M46.2,0.6c-1.1,0-1.9,0.3-2.5,1s-0.9,1.6-0.9,2.8c0,1.2,0.3,2.2,0.9,2.8s1.4,1,2.5,1c0.7,0,1.4-0.1,2-0.3v0.5
		c-0.6,0.2-1.3,0.3-2.1,0.3c-1.2,0-2.2-0.4-2.8-1.2s-1-1.9-1-3.3c0-0.9,0.2-1.6,0.5-2.3s0.8-1.2,1.4-1.5S45.4,0,46.2,0
		c0.8,0,1.6,0.2,2.2,0.5L48.2,1C47.6,0.7,46.9,0.6,46.2,0.6z"/>
	<path class="st0" d="M54.2,5.7h-3.5l-1.2,3h-0.7l3.4-8.6h0.4L56,8.7h-0.7L54.2,5.7z M50.9,5.2H54l-1.2-3.1c-0.1-0.2-0.2-0.6-0.4-1
		c-0.1,0.4-0.2,0.7-0.3,1L50.9,5.2z"/>
	<path class="st0" d="M57.8,5v3.7h-0.6V0.1h2c1.1,0,1.8,0.2,2.4,0.6s0.8,1,0.8,1.8c0,0.6-0.2,1.1-0.5,1.5s-0.8,0.7-1.4,0.8l2.3,3.9
		h-0.7L60,5H57.8z M57.8,4.5h1.6c0.7,0,1.3-0.2,1.7-0.5s0.6-0.8,0.6-1.4c0-0.7-0.2-1.1-0.6-1.4s-1-0.4-1.9-0.4h-1.4V4.5z"/>
	<path class="st0" d="M70.9,4.3c0,1.4-0.4,2.5-1.1,3.3s-1.9,1.1-3.3,1.1h-2.1V0.1h2.3c1.4,0,2.4,0.4,3.1,1.1S70.9,3,70.9,4.3z
		 M70.2,4.4c0-1.2-0.3-2.1-0.9-2.8s-1.5-0.9-2.7-0.9H65v7.5h1.4C68.9,8.2,70.2,6.9,70.2,4.4z"/>
	<path class="st0" d="M77.6,6.5c0,0.7-0.3,1.3-0.8,1.7s-1.2,0.6-2.1,0.6c-1,0-1.8-0.1-2.4-0.3V7.9c0.6,0.3,1.4,0.4,2.4,0.4
		c0.7,0,1.3-0.2,1.7-0.5s0.6-0.7,0.6-1.3c0-0.3-0.1-0.6-0.2-0.8s-0.4-0.4-0.7-0.6c-0.3-0.2-0.8-0.4-1.4-0.6c-0.9-0.3-1.5-0.6-1.8-1
		s-0.5-0.8-0.5-1.4c0-0.6,0.3-1.2,0.8-1.6S74.3,0,75.1,0c0.8,0,1.6,0.2,2.3,0.5L77.1,1c-0.7-0.3-1.4-0.4-2-0.4
		c-0.6,0-1.1,0.1-1.5,0.4S73,1.7,73,2.2c0,0.3,0.1,0.6,0.2,0.8s0.3,0.4,0.6,0.5s0.7,0.4,1.3,0.6c0.7,0.2,1.2,0.5,1.5,0.7
		s0.6,0.5,0.7,0.7S77.6,6.1,77.6,6.5z"/>
</g>
</svg>
