<?xml version="1.0" encoding="UTF-8"?>
<!-- Generator: Adobe Illustrator 26.5.0, SVG Export Plug-In . SVG Version: 6.00 Build 0)  -->
<svg version="1.1" id="Layer_1" xmlns="http://www.w3.org/2000/svg" xmlns:xlink="http://www.w3.org/1999/xlink" x="0px" y="0px" viewBox="0 0 32 32" style="enable-background:new 0 0 32 32;" xml:space="preserve">
<style type="text/css">
	.st0{fill-rule:evenodd;clip-rule:evenodd;fill:#FFFFFF;stroke-width:0.25;stroke-miterlimit:10;}
</style>
<path class="st0" d="M26,8.4H6c-0.6,0-1-0.4-1-1s0.4-1,1-1h20c0.6,0,1,0.4,1,1S26.6,8.4,26,8.4z M26,17.1H6c-0.6,0-1-0.4-1-1  c0-0.6,0.4-1,1-1h20c0.6,0,1,0.4,1,1C27,16.6,26.6,17.1,26,17.1z M6,25.1h20c0.6,0,1-0.4,1-1s-0.4-1-1-1H6c-0.6,0-1,0.4-1,1  S5.4,25.1,6,25.1z"/>
</svg>