<?xml version="1.0" encoding="UTF-8"?>
<svg width="68px" height="68px" viewBox="0 0 68 68" version="1.1" xmlns="http://www.w3.org/2000/svg" xmlns:xlink="http://www.w3.org/1999/xlink">
    <title>icon_business</title>
    <g id="hp--new-offers--" stroke="none" stroke-width="1" fill="none" fill-rule="evenodd">
        <g id="1-desktop---3-cards" transform="translate(-504.000000, -2942.000000)" fill-rule="nonzero">
            <g id="icon_business" transform="translate(504.000000, 2942.000000)">
                <path d="M36.534597,1.04987925 L1.04987285,36.5346002 C-0.349957617,37.9344765 -0.349957617,40.2040215 1.04987285,41.6038978 L26.396215,66.9501728 C27.7959847,68.3499424 30.0656363,68.3499424 31.465406,66.9501728 L66.9501696,31.4654092 C68.3499392,30.0656395 68.3499392,27.7959879 66.9501696,26.3962182 L41.6038946,1.04987925 C40.2040183,-0.349965084 37.9344733,-0.349954416 36.534597,1.04987925 Z" id="Path" fill="#E8F5FE"></path>
                <path d="M44.104192,15.4284933 L41.7145235,15.4284933 L41.7145235,10.6491563 L27.3765125,10.6491563 L27.3765125,15.4284933 L24.986844,15.4284933 L24.986844,10.6491563 C24.986844,10.015382 25.2386126,9.40755279 25.6867822,8.9594046 C26.134845,8.51125641 26.7427169,8.25948777 27.3765125,8.25948777 L41.7145235,8.25948777 C42.348319,8.25948777 42.9561909,8.51125641 43.4042538,8.9594046 C43.8524233,9.40755279 44.104192,10.015382 44.104192,10.6491563 L44.104192,15.4284933 Z" id="Path" fill="#002F6C"></path>
                <path d="M5.8695707,39.3263517 L63.2216466,39.3263517 L63.2216466,54.8591969 C63.2216466,55.8098369 62.8439936,56.7215381 62.171686,57.3938458 C61.4994851,58.0660467 60.5878905,58.4436997 59.6371439,58.4436997 L9.45407345,58.4436997 C8.50340144,58.4436997 7.59166824,58.0660467 6.91944595,57.3938458 C6.24722367,56.7215381 5.8695707,55.8098369 5.8695707,54.8591969 L5.8695707,39.3263517 Z" id="Path" fill="#002F6C"></path>
                <path d="M59.6371439,15.4292507 L9.45407345,15.4292507 C7.47440379,15.4292507 5.8695707,17.0341585 5.8695707,19.0137428 L5.8695707,40.5207592 C5.8695707,42.5004502 7.47440379,44.105262 9.45407345,44.105262 L59.6371439,44.105262 C61.6168349,44.105262 63.2216466,42.5004502 63.2216466,40.5207592 L63.2216466,19.0137428 C63.2216466,17.0341585 61.6168349,15.4292507 59.6371439,15.4292507 Z" id="Path" fill="#0091DA"></path>
                <path d="M59.6388508,44.105262 L22.5989891,44.105262 L51.275011,15.4292507 L59.6388508,15.4292507 C60.5895975,15.4292507 61.501192,15.8069037 62.1734996,16.4790939 C62.8457006,17.1514016 63.2233535,18.0631028 63.2233535,19.0137428 L63.2233535,40.5207592 C63.2233535,41.4715059 62.8457006,42.3833138 62.1734996,43.0554081 C61.501192,43.727609 60.5895975,44.105262 59.6388508,44.105262 Z" id="Path" fill="#005EB8"></path>
                <polygon id="Path" fill="#FFB81C" points="22.5984557 48.8850257 22.5984557 39.3263517 17.8191187 39.3263517 17.8191187 48.8850257"></polygon>
                <polygon id="Path" fill="#FFB81C" points="51.2734108 48.8850257 51.2734108 39.3263517 46.4939671 39.3263517 46.4939671 48.8850257"></polygon>
            </g>
        </g>
    </g>
</svg>