<?xml version="1.0" encoding="UTF-8"?>
<svg width="63px" height="63px" viewBox="0 0 63 63" version="1.1" xmlns="http://www.w3.org/2000/svg" xmlns:xlink="http://www.w3.org/1999/xlink">
    <title>icon_personal</title>
    <g id="hp--new-offers--" stroke="none" stroke-width="1" fill="none" fill-rule="evenodd">
        <g id="1-desktop---3-cards" transform="translate(-244.000000, -2942.000000)" fill-rule="nonzero">
            <g id="icon/people_profile" transform="translate(244.000000, 2942.000000)">
                <path d="M31.499983,63 C48.8969242,63 63,48.8969242 63,31.499983 C63,14.1030417 48.8969242,0 31.499983,0 C14.1030417,0 0,14.1030417 0,31.499983 C0,48.8969242 14.1030417,63 31.499983,63 Z" id="Path" fill="#0091DA"></path>
                <path d="M40.7810675,22.1237847 C40.7810675,28.2748108 36.6257244,33.9279388 31.4998125,33.9279388 C26.3739006,33.9279388 22.2185575,28.2748108 22.2185575,22.1237847 C22.2185575,15.9727586 26.3739006,11.6529268 31.4998125,11.6529268 C36.6257244,11.6529268 40.7810675,15.9727586 40.7810675,22.1237847 Z" id="Path" fill="#FFFFFF"></path>
                <path d="M31.499983,55.1248285 C37.7087931,55.1280639 43.6668645,52.6743694 48.072776,48.2994807 C48.3710716,47.9890828 48.5604467,47.5900485 48.6120945,47.1627187 C48.6639127,46.7352185 48.5751058,46.3026046 48.3593103,45.9301612 C47.0783437,43.6073759 45.1980585,41.6703294 42.9143073,40.3211809 C40.6303856,38.971862 38.026691,38.2597025 35.374076,38.2586798 L27.6258899,38.2586798 C24.9732749,38.2597025 22.3694098,38.971862 20.0856586,40.3211809 C17.8017369,41.6703294 15.9214518,43.6073759 14.6406556,45.9301612 C14.4248601,46.3026046 14.3360532,46.7352185 14.387701,47.1627187 C14.4393487,47.5900485 14.6287238,47.9890828 14.9271899,48.2994807 C19.3329309,52.6743694 25.2910023,55.1280639 31.499983,55.1248285 Z" id="Path" fill="#FFFFFF"></path>
                <path d="M48.0731169,48.2996511 C48.371583,47.9892532 48.5607876,47.5902189 48.6126059,47.1628892 C48.6642536,46.7353889 48.5754467,46.3027751 48.3596512,45.9303317 C46.6414684,42.8236254 43.8683419,40.4343628 40.5417492,39.1946462 L25.4133888,54.3238589 C29.3873682,55.3885186 33.5710068,55.39278 37.5470317,54.3357908 C41.5230566,53.2788016 45.1525472,51.1977209 48.0731169,48.3001625 L48.0731169,48.2996511 Z" id="Path" fill="#E8F5FE"></path>
            </g>
        </g>
    </g>
</svg>