<?xml version="1.0" encoding="UTF-8"?>
<svg width="100px" height="72px" viewBox="0 0 100 72" version="1.1" xmlns="http://www.w3.org/2000/svg" xmlns:xlink="http://www.w3.org/1999/xlink">
    <title>icon_just_browsing</title>
    <g id="hp--new-offers--" stroke="none" stroke-width="1" fill="none" fill-rule="evenodd">
        <g id="1-desktop---3-cards" transform="translate(-151.000000, -3273.000000)">
            <rect fill="#FFFFFF" x="0" y="0" width="1440" height="4063"></rect>
            <rect id="Rectangle" fill="#F5F7F8" x="0" y="3220" width="1440" height="176"></rect>
            <g id="Group" transform="translate(151.000000, 3253.000000)" fill-rule="nonzero">
                <g id="icon_just_browsing">
                    <path d="M96.5493168,53.5379441 L44.2850932,1.27347205 C42.5870807,-0.424490683 39.8342857,-0.424490683 38.1362733,1.27347205 L7.39242236,32.0171988 C5.69453416,33.7152112 5.69453416,36.4680062 7.39242236,38.1660186 L59.6570186,90.4304907 C61.3546584,92.1282547 64.1078261,92.1282547 65.8054658,90.4304907 L96.5493168,59.6866398 C98.2473292,57.9887516 98.2473292,55.2358323 96.5493168,53.5379441 Z" id="Path" fill="#E8F5FE"></path>
                    <path d="M78.2608696,21.7367019 L4.34782609,21.7367019 C1.94658385,21.7367019 0,23.6834099 0,26.084528 L0,69.5627888 C0,71.9641553 1.94658385,73.9106149 4.34782609,73.9106149 L78.2608696,73.9106149 C80.6619876,73.9106149 82.6086957,71.9641553 82.6086957,69.5627888 L82.6086957,26.084528 C82.6086957,23.6834099 80.6619876,21.7367019 78.2608696,21.7367019 Z" id="Path" fill="#002F6C"></path>
                    <path d="M86.9565217,30.432354 L13.0434783,30.432354 C10.642236,30.432354 8.69565217,32.3790621 8.69565217,34.7801801 L8.69565217,78.258441 C8.69565217,80.6598075 10.642236,82.6062671 13.0434783,82.6062671 L86.9565217,82.6062671 C89.357764,82.6062671 91.3043478,80.6598075 91.3043478,78.258441 L91.3043478,34.7801801 C91.3043478,32.3790621 89.357764,30.432354 86.9565217,30.432354 Z" id="Path" fill="#FFB81C"></path>
                    <path d="M95.6521739,39.1280062 L21.7391304,39.1280062 C19.3380124,39.1280062 17.3913043,41.0744658 17.3913043,43.4758323 L17.3913043,86.9540932 C17.3913043,89.3552112 19.3380124,91.3019193 21.7391304,91.3019193 L95.6521739,91.3019193 C98.0535404,91.3019193 100,89.3552112 100,86.9540932 L100,43.4758323 C100,41.0744658 98.0535404,39.1280062 95.6521739,39.1280062 Z" id="Path" fill="#0091DA"></path>
                    <path d="M95.6521739,91.3019193 L34.7826087,91.3019193 L86.9565217,39.1280062 L95.6521739,39.1280062 C96.8053416,39.1280062 97.9111801,39.5861429 98.7264596,40.4012981 C99.5418634,41.2168261 100,42.3226646 100,43.4758323 L100,86.9540932 C100,88.1070124 99.5418634,89.2130994 98.7264596,90.0283789 C97.9111801,90.8437826 96.8053416,91.3019193 95.6521739,91.3019193 Z" id="Path" fill="#005EB8"></path>
                    <polygon id="Path" fill="#005EB8" points="65.2173913 80.432354 26.0869565 80.432354 26.0869565 84.7801801 65.2173913 84.7801801"></polygon>
                    <polygon id="Path" fill="#002F6C" points="65.2173913 84.7801801 41.3043478 84.7801801 45.6521739 80.432354 65.2173913 80.432354"></polygon>
                    <path d="M30.7526708,45.6497453 C30.6304348,45.6497453 30.5129193,45.6975714 30.4259627,45.7835342 C30.3387578,45.8692484 30.2888199,45.985646 30.2868323,46.107882 L30.2868323,49.3376957 L38.827205,49.3376957 L34.9373913,45.6497453 L30.7526708,45.6497453 Z" id="Path" fill="#FFFFFF"></path>
                    <path d="M39.1304348,50.3077578 C39.1314286,50.2471366 39.1203727,50.1871366 39.097764,50.131236 C39.0750311,50.075087 39.0413665,50.0240311 38.9987578,49.9814224 C38.9557764,49.9386894 38.9049689,49.9050248 38.8488199,49.8822919 C38.7929193,49.8596832 38.7329193,49.8486273 38.6722981,49.8495596 L35.4424845,49.8495596 L35.4424845,58.3899938 L39.1304348,54.5080062 L39.1304348,50.3077578 Z" id="Path" fill="#FFFFFF"></path>
                    <path d="M34.4725466,58.6932236 C34.5941615,58.6932236 34.7106832,58.6447764 34.7965217,58.5589379 C34.8824845,58.4732236 34.930559,58.3565776 34.930559,58.2352112 L34.930559,55.0052733 L26.3901863,55.0052733 L30.2721739,58.6932236 L34.4725466,58.6932236 Z" id="Path" fill="#FFFFFF"></path>
                    <path d="M26.0870807,54.0275093 C26.0859627,54.0883789 26.0971429,54.1488758 26.1196273,54.2053975 C26.1421118,54.261795 26.1757764,54.3132236 26.2182609,54.3564534 C26.2609938,54.3999317 26.3119255,54.4343416 26.3678261,54.4579441 C26.4239752,54.4815466 26.4842236,54.4933478 26.5450932,54.4933478 L29.8137888,54.4933478 L29.8137888,45.9529752 L26.1258385,49.8349627 L26.1258385,54.0198075" id="Path" fill="#FFFFFF"></path>
                    <path d="M35.8695652,67.3888758 L27.173913,67.3888758 C26.5735404,67.3888758 26.0869565,67.8754596 26.0869565,68.4758323 L26.0869565,72.8236584 C26.0869565,73.4240311 26.5735404,73.9106149 27.173913,73.9106149 L35.8695652,73.9106149 C36.4699379,73.9106149 36.9565217,73.4240311 36.9565217,72.8236584 L36.9565217,68.4758323 C36.9565217,67.8754596 36.4699379,67.3888758 35.8695652,67.3888758 Z" id="Path" fill="#FFB81C"></path>
                </g>
            </g>
        </g>
    </g>
</svg>