<?xml version="1.0" encoding="UTF-8"?><svg width="48" height="48" viewBox="0 0 48 48" fill="none" xmlns="http://www.w3.org/2000/svg">
<path d="M40.8 10.56H30.72V7.20002C30.72 6.75446 30.543 6.32714 30.228 6.01208C29.9129 5.69702 29.4856 5.52002 29.04 5.52002H18.96C18.5145 5.52002 18.0871 5.69702 17.7721 6.01208C17.457 6.32714 17.28 6.75446 17.28 7.20002V10.56H7.20003C6.30914 10.5608 5.45498 10.9151 4.82503 11.545C4.19508 12.175 3.84082 13.0291 3.84003 13.92V37.44C3.84082 38.3309 4.19508 39.1851 4.82503 39.815C5.45498 40.445 6.30914 40.7992 7.20003 40.8H40.8C41.6909 40.7992 42.5451 40.445 43.175 39.815C43.805 39.1851 44.1592 38.3309 44.16 37.44V13.92C44.1592 13.0291 43.805 12.175 43.175 11.545C42.5451 10.9151 41.6909 10.5608 40.8 10.56V10.56ZM18.96 7.20002H29.04V10.56H18.96V7.20002ZM40.8 39.12H7.20003C6.75446 39.12 6.32715 38.943 6.01209 38.628C5.69703 38.3129 5.52003 37.8856 5.52003 37.44V31.104C6.02969 31.4023 6.6095 31.5597 7.20003 31.56H12.24V34.08H15.6V31.56H32.4V34.08H35.76V31.56H40.8C41.3906 31.5597 41.9704 31.4023 42.48 31.104V37.44C42.48 37.8856 42.303 38.3129 41.988 38.628C41.6729 38.943 41.2456 39.12 40.8 39.12V39.12ZM42.48 28.2C42.48 28.6456 42.303 29.0729 41.988 29.388C41.6729 29.703 41.2456 29.88 40.8 29.88H35.76V27.36H32.4V29.88H15.6V27.36H12.24V29.88H7.20003C6.75446 29.88 6.32715 29.703 6.01209 29.388C5.69703 29.0729 5.52003 28.6456 5.52003 28.2V13.92C5.52003 13.4745 5.69703 13.0471 6.01209 12.7321C6.32715 12.417 6.75446 12.24 7.20003 12.24H40.8C41.2456 12.24 41.6729 12.417 41.988 12.7321C42.303 13.0471 42.48 13.4745 42.48 13.92V28.2Z" fill="#565a5d"/>
</svg>
