<?xml version="1.0" encoding="UTF-8"?><svg width="48" height="48" viewBox="0 0 48 48" fill="none" xmlns="http://www.w3.org/2000/svg">
<path d="M13.92 29.1721H8.87998C8.6572 29.1721 8.44354 29.2606 8.28601 29.4182C8.12848 29.5757 8.03998 29.7893 8.03998 30.0121C8.03998 30.2349 8.12848 30.4486 8.28601 30.6061C8.44354 30.7636 8.6572 30.8521 8.87998 30.8521H13.92C14.1428 30.8521 14.3564 30.7636 14.5139 30.6061C14.6715 30.4486 14.76 30.2349 14.76 30.0121C14.76 29.7893 14.6715 29.5757 14.5139 29.4182C14.3564 29.2606 14.1428 29.1721 13.92 29.1721Z" fill="#565a5d"/>
<path d="M34.92 19.0921H39.12C39.3428 19.0921 39.5565 19.0036 39.714 18.8461C39.8715 18.6885 39.96 18.4749 39.96 18.2521C39.96 18.0293 39.8715 17.8157 39.714 17.6581C39.5565 17.5006 39.3428 17.4121 39.12 17.4121H34.92C34.6972 17.4121 34.4836 17.5006 34.326 17.6581C34.1685 17.8157 34.08 18.0293 34.08 18.2521C34.08 18.4749 34.1685 18.6885 34.326 18.8461C34.4836 19.0036 34.6972 19.0921 34.92 19.0921V19.0921Z" fill="#565a5d"/>
<path d="M29.88 24.9719H8.87998C8.6572 24.9719 8.44354 25.0604 8.28601 25.218C8.12848 25.3755 8.03998 25.5891 8.03998 25.8119C8.03998 26.0347 8.12848 26.2484 8.28601 26.4059C8.44354 26.5634 8.6572 26.6519 8.87998 26.6519H29.88C30.1028 26.6519 30.3164 26.5634 30.474 26.4059C30.6315 26.2484 30.72 26.0347 30.72 25.8119C30.72 25.5891 30.6315 25.3755 30.474 25.218C30.3164 25.0604 30.1028 24.9719 29.88 24.9719V24.9719Z" fill="#565a5d"/>
<path d="M43.32 34.9201H4.68003C4.45725 34.9201 4.24359 34.8316 4.08606 34.6741C3.92853 34.5165 3.84003 34.3029 3.84003 34.0801V13.9201C3.84003 13.6973 3.92853 13.4836 4.08606 13.3261C4.24359 13.1686 4.45725 13.0801 4.68003 13.0801H43.32C43.5428 13.0801 43.7565 13.1686 43.914 13.3261C44.0715 13.4836 44.16 13.6973 44.16 13.9201V34.0801C44.16 34.3029 44.0715 34.5165 43.914 34.6741C43.7565 34.8316 43.5428 34.9201 43.32 34.9201V34.9201ZM5.52003 33.2401H42.48V14.7601H5.52003V33.2401Z" fill="#565a5d"/>
</svg>
