<svg width="48" height="48" viewBox="0 0 48 48" fill="none" xmlns="http://www.w3.org/2000/svg"><path d="M44.505 20.847L24.525 4.86299C24.376 4.7437 24.1908 4.67871 24 4.67871C23.8091 4.67871 23.624 4.7437 23.475 4.86299L16.02 10.827V8.45999C16.02 8.2372 15.9315 8.02355 15.774 7.86602C15.6164 7.70849 15.4028 7.61999 15.18 7.61999H9.3C9.07721 7.61999 8.86356 7.70849 8.70603 7.86602C8.5485 8.02355 8.46 8.2372 8.46 8.45999V16.875L3.495 20.847C3.15038 21.117 2.89877 21.488 2.77535 21.908C2.65194 22.3281 2.66289 22.7762 2.80668 23.1897C2.95047 23.6032 3.2199 23.9615 3.5773 24.2143C3.9347 24.4672 4.3622 24.602 4.8 24.6H7.2V40.8C7.2 41.0228 7.2885 41.2364 7.44603 41.394C7.60356 41.5515 7.81721 41.64 8.04 41.64H19.8C20.0228 41.64 20.2364 41.5515 20.394 41.394C20.5515 41.2364 20.64 41.0228 20.64 40.8V28.2H27.36V40.8C27.36 41.0228 27.4485 41.2364 27.606 41.394C27.7636 41.5515 27.9772 41.64 28.2 41.64H39.96C40.1828 41.64 40.3964 41.5515 40.554 41.394C40.7115 41.2364 40.8 41.0228 40.8 40.8V24.6H43.2C43.6354 24.6001 44.06 24.4649 44.4152 24.2131C44.7703 23.9613 45.0385 23.6054 45.1824 23.1945C45.3264 22.7836 45.3391 22.3382 45.2189 21.9198C45.0986 21.5013 44.8512 21.1307 44.511 20.859L44.505 20.847ZM10.14 9.29999H14.34V12.171L10.14 15.531V9.29999ZM39.12 39.96H29.04V27.36C29.04 27.1372 28.9515 26.9235 28.794 26.766C28.6364 26.6085 28.4228 26.52 28.2 26.52H19.8C19.5772 26.52 19.3636 26.6085 19.206 26.766C19.0485 26.9235 18.96 27.1372 18.96 27.36V39.96H8.88V24.153L24 12.057L39.12 24.153V39.96ZM43.59 22.626C43.5634 22.7095 43.5104 22.7822 43.439 22.833C43.3676 22.8839 43.2816 22.9102 43.194 22.908H40.254L24.525 10.323C24.376 10.2037 24.1908 10.1387 24 10.1387C23.8091 10.1387 23.624 10.2037 23.475 10.323L7.746 22.923H4.8C4.71236 22.9252 4.62638 22.8989 4.55498 22.848C4.48357 22.7972 4.43059 22.7245 4.404 22.641C4.3724 22.5594 4.36851 22.4697 4.3929 22.3857C4.41729 22.3016 4.46863 22.228 4.539 22.176L24 6.59999L43.455 22.164C43.5247 22.2158 43.5756 22.289 43.6 22.3723C43.6244 22.4557 43.6209 22.5448 43.59 22.626V22.626Z" fill="#5B6C7B" id="linearFillSecondary1"/></svg>