<svg id="Icons" xmlns="http://www.w3.org/2000/svg" width="48" height="48" viewBox="0 0 48 48"><rect width="48" height="48" fill="none"/><path d="M41.0587,39.745l-.5172-2.0682a6.55,6.55,0,0,0-6.3628-4.968H31.1948a6.5447,6.5447,0,0,0-5.8919,3.6873l-.0114-.0455a8.0058,8.0058,0,0,0-7.7782-6.0732H13.7685A8.0058,8.0058,0,0,0,5.99,36.35l-.849,3.3946a3.36,3.36,0,0,0,3.26,4.175H37.7988a3.36,3.36,0,0,0,3.26-4.175ZM8.4012,42.24a1.68,1.68,0,0,1-1.63-2.0873l.849-3.3948a6.3278,6.3278,0,0,1,6.1482-4.8h3.7448a6.3278,6.3278,0,0,1,6.1482,4.8005L25.0322,42.24Zm30.7216-.646a1.6689,1.6689,0,0,1-1.324.646H26.7639l-.6747-2.6984c.009-.0252.02-.0488.0271-.0751l.3453-1.3822a4.8718,4.8718,0,0,1,4.7332-3.6955h2.9839a4.8712,4.8712,0,0,1,4.7328,3.6955l.5172,2.068A1.67,1.67,0,0,1,39.1228,41.594Z" fill="#565a5d"/><path d="M28.4866,25.9156c0,2.7716,1.9232,5.1132,4.2,5.1132s4.2-2.3416,4.2-5.1132a4.22,4.22,0,1,0-8.4,0Zm6.72,0c0,1.7969-1.201,3.4332-2.52,3.4332s-2.52-1.6363-2.52-3.4332a2.7,2.7,0,0,1,2.52-2.9507A2.7,2.7,0,0,1,35.2066,25.9156Z" fill="#565a5d"/><path d="M15.6409,28.5974c2.732,0,5.04-2.8309,5.04-6.1815,0-3.18-2.1669-5.5785-5.04-5.5785s-5.04,2.3982-5.04,5.5785C10.6009,25.7665,12.9088,28.5974,15.6409,28.5974Zm0-10.08c1.9154,0,3.36,1.6759,3.36,3.8985,0,2.398-1.57,4.5015-3.36,4.5015s-3.36-2.1035-3.36-4.5015C12.2809,20.1933,13.7255,18.5174,15.6409,18.5174Z" fill="#565a5d"/><circle cx="28.56" cy="9.9" r="1.26" fill="#565a5d"/><circle cx="23.52" cy="9.9" r="1.26" fill="#565a5d"/><circle cx="33.6" cy="9.9" r="1.26" fill="#565a5d"/><path d="M26.04,20.4a.8394.8394,0,0,1-.82-.6577l-.694-3.1223H24.36a6.72,6.72,0,0,1,0-13.44h8.4a6.72,6.72,0,0,1,0,13.44H29.7773l-3.1094,3.498A.84.84,0,0,1,26.04,20.4ZM24.36,4.86a5.04,5.04,0,1,0,0,10.08h.84a.84.84,0,0,1,.82.6577l.4836,2.1763,2.2686-2.552A.84.84,0,0,1,29.4,14.94h3.36a5.04,5.04,0,0,0,0-10.08Z" fill="#565a5d"/></svg>