<?xml version="1.0" encoding="UTF-8"?><svg width="48" height="48" viewBox="0 0 48 48" fill="none" xmlns="http://www.w3.org/2000/svg">
<path d="M34.2 20.943L35.982 19.161C40.674 14.469 42.306 10.041 40.14 7.87498C37.974 5.70898 33.54 7.34098 28.854 12.033L27.072 13.815L8.772 11.202C8.64321 11.1833 8.51183 11.195 8.38837 11.2361C8.26492 11.2773 8.1528 11.3467 8.061 11.439L5.685 13.815C5.60614 13.8936 5.54377 13.9872 5.50153 14.0902C5.45929 14.1932 5.43803 14.3036 5.439 14.415C5.43899 14.5668 5.47996 14.7157 5.55758 14.8461C5.6352 14.9766 5.74659 15.0836 5.88 15.156L18.78 22.104L14.58 26.304C14.4771 26.4073 14.4027 26.5354 14.364 26.676L13.695 29.133L7.971 27.573C7.8285 27.5337 7.67812 27.533 7.53527 27.571C7.39241 27.6089 7.26221 27.6842 7.158 27.789L5.376 29.571C5.28655 29.6595 5.21822 29.7671 5.17609 29.8857C5.13396 30.0043 5.11912 30.1308 5.13267 30.256C5.14622 30.3811 5.18782 30.5015 5.25436 30.6084C5.3209 30.7152 5.41067 30.8056 5.517 30.873L11.895 34.932L10.425 36.402C10.3071 36.5198 10.227 36.67 10.1948 36.8336C10.1625 36.9971 10.1797 37.1665 10.244 37.3202C10.3083 37.474 10.4169 37.6051 10.556 37.697C10.6951 37.7888 10.8583 37.8372 11.025 37.836C11.2496 37.8363 11.4652 37.7479 11.625 37.59L13.095 36.12L17.142 42.48C17.175 42.5308 17.2132 42.5781 17.256 42.621C17.334 42.7012 17.4273 42.7649 17.5303 42.8084C17.6334 42.852 17.7441 42.8744 17.856 42.8744C17.9679 42.8744 18.0786 42.852 18.1817 42.8084C18.2847 42.7649 18.378 42.7012 18.456 42.621L20.238 40.839C20.3428 40.7348 20.4181 40.6046 20.456 40.4617C20.494 40.3189 20.4933 40.1685 20.454 40.026L18.894 34.302L21.351 33.633C21.4915 33.5942 21.6197 33.5198 21.723 33.417L25.923 29.217L32.874 42.117C32.9361 42.2326 33.0242 42.3321 33.1315 42.4076C33.2388 42.4831 33.3622 42.5326 33.492 42.552C33.5319 42.555 33.5721 42.555 33.612 42.552C33.7233 42.5529 33.8338 42.5317 33.9368 42.4894C34.0398 42.4472 34.1334 42.3848 34.212 42.306L36.588 39.93C36.6807 39.8379 36.7504 39.7252 36.7916 39.6012C36.8327 39.4772 36.8442 39.3452 36.825 39.216L34.2 20.943ZM7.662 14.205L8.943 12.924L25.572 15.3L20.016 20.856L7.662 14.205ZM20.682 32.07L17.631 32.901C17.5238 32.9292 17.4231 32.9783 17.3349 33.0455C17.2467 33.1127 17.1726 33.1966 17.1169 33.2925C17.0611 33.3884 17.0249 33.4943 17.0101 33.6042C16.9954 33.7141 17.0025 33.8258 17.031 33.933L18.684 39.996L18 40.695L14.4 35.043C14.3659 34.9921 14.3267 34.9449 14.283 34.902L15.099 34.086C15.2581 33.9269 15.3475 33.711 15.3475 33.486C15.3475 33.2609 15.2581 33.0451 15.099 32.886C14.9399 32.7269 14.724 32.6375 14.499 32.6375C14.274 32.6375 14.0581 32.7269 13.899 32.886L13.083 33.702C13.0394 33.6591 12.9922 33.6199 12.942 33.585L7.305 30L8.004 29.304L14.067 30.957C14.1742 30.9855 14.2859 30.9926 14.3958 30.9779C14.5057 30.9631 14.6116 30.9268 14.7075 30.8711C14.8034 30.8154 14.8873 30.7413 14.9545 30.653C15.0216 30.5648 15.0708 30.4642 15.099 30.357L15.93 27.318L30.03 13.218C34.32 8.92798 37.758 7.87798 38.94 9.05998C40.122 10.242 39.072 13.68 34.782 17.97L20.682 32.07ZM33.795 40.341L27.144 27.984L32.7 22.428L35.076 39.06L33.795 40.341Z" fill="#565a5d"/>
<path d="M35.079 13.3499C35.1019 13.5559 35.1999 13.7464 35.3543 13.8847C35.5087 14.0231 35.7087 14.0997 35.916 14.0999H36C36.2195 14.08 36.4224 13.9744 36.5645 13.8059C36.7066 13.6374 36.7765 13.4196 36.759 13.1999C36.7181 12.6962 36.5003 12.2233 36.144 11.8649C35.7861 11.5119 35.3135 11.299 34.812 11.2649C34.6996 11.2492 34.5851 11.2565 34.4756 11.2863C34.366 11.3161 34.2637 11.3678 34.1747 11.4382C34.0856 11.5087 34.0118 11.5964 33.9577 11.6962C33.9036 11.796 33.8702 11.9057 33.8597 12.0188C33.8491 12.1318 33.8616 12.2458 33.8963 12.3539C33.931 12.4619 33.9873 12.5619 34.0618 12.6476C34.1362 12.7333 34.2272 12.803 34.3294 12.8526C34.4315 12.9021 34.5426 12.9305 34.656 12.9359C34.7688 12.9392 34.876 12.9853 34.956 13.0649C35.0295 13.1423 35.0731 13.2433 35.079 13.3499V13.3499Z" fill="#565a5d"/>
</svg>
