<?xml version="1.0" encoding="UTF-8"?><svg width="48" height="48" viewBox="0 0 48 48" fill="none" xmlns="http://www.w3.org/2000/svg">
<g clip-path="url(#clip0)">
<path d="M44.379 18.8701L35.994 17.6701C35.7829 17.6406 35.5793 17.5714 35.394 17.4661L30.672 14.7661C28.1355 13.313 25.2642 12.5458 22.341 12.5401H19.875C17.7374 12.5372 15.6191 12.9445 13.635 13.7401L5.058 17.1721C4.3844 17.4416 3.66553 17.5801 2.94 17.5801C2.49444 17.5801 2.06712 17.7571 1.75206 18.0721C1.437 18.3872 1.26 18.8145 1.26 19.2601V21.3601C1.09453 21.3601 0.930689 21.3926 0.777819 21.456C0.624949 21.5193 0.486047 21.6121 0.369045 21.7291C0.13275 21.9654 0 22.2859 0 22.6201L0 27.2401C0.000794368 28.1309 0.355048 28.9851 0.984999 29.6151C1.61495 30.245 2.46912 30.5993 3.36 30.6001H5.334C5.67966 31.5828 6.32188 32.434 7.172 33.0362C8.02213 33.6384 9.03822 33.9618 10.08 33.9618C11.1218 33.9618 12.1379 33.6384 12.988 33.0362C13.8381 32.434 14.4803 31.5828 14.826 30.6001H33.174C33.5197 31.5828 34.1619 32.434 35.012 33.0362C35.8621 33.6384 36.8782 33.9618 37.92 33.9618C38.9618 33.9618 39.9779 33.6384 40.828 33.0362C41.6781 32.434 42.3203 31.5828 42.666 30.6001H44.64C45.5309 30.5993 46.3851 30.245 47.015 29.6151C47.645 28.9851 47.9992 28.1309 48 27.2401V23.0401C48.0024 22.0247 47.637 21.0429 46.9713 20.2762C46.3056 19.5096 45.3847 19.01 44.379 18.8701V18.8701ZM10.08 32.2801C9.41545 32.2801 8.76583 32.083 8.21328 31.7138C7.66074 31.3446 7.23008 30.8198 6.97577 30.2059C6.72145 29.5919 6.65492 28.9163 6.78456 28.2646C6.91421 27.6128 7.23422 27.0141 7.70412 26.5442C8.17403 26.0743 8.77272 25.7543 9.4245 25.6246C10.0763 25.495 10.7519 25.5615 11.3658 25.8158C11.9798 26.0701 12.5045 26.5008 12.8737 27.0533C13.2429 27.6059 13.44 28.2555 13.44 28.9201C13.4392 29.8109 13.085 30.6651 12.455 31.2951C11.8251 31.925 10.9709 32.2793 10.08 32.2801V32.2801ZM37.92 32.2801C37.2555 32.2801 36.6058 32.083 36.0533 31.7138C35.5007 31.3446 35.0701 30.8198 34.8158 30.2059C34.5615 29.5919 34.4949 28.9163 34.6246 28.2646C34.7542 27.6128 35.0742 27.0141 35.5441 26.5442C36.014 26.0743 36.6127 25.7543 37.2645 25.6246C37.9163 25.495 38.5919 25.5615 39.2058 25.8158C39.8198 26.0701 40.3445 26.5008 40.7137 27.0533C41.0829 27.6059 41.28 28.2555 41.28 28.9201C41.2792 29.8109 40.925 30.6651 40.295 31.2951C39.6651 31.925 38.8109 32.2793 37.92 32.2801V32.2801ZM44.64 28.9201H42.96C42.96 28.2582 42.8296 27.6028 42.5764 26.9913C42.3231 26.3798 41.9518 25.8242 41.4838 25.3562C41.0158 24.8882 40.4602 24.517 39.8487 24.2637C39.2372 24.0104 38.5819 23.8801 37.92 23.8801C37.2581 23.8801 36.6028 24.0104 35.9913 24.2637C35.3798 24.517 34.8242 24.8882 34.3562 25.3562C33.8882 25.8242 33.5169 26.3798 33.2636 26.9913C33.0104 27.6028 32.88 28.2582 32.88 28.9201H15.12C15.12 28.2582 14.9896 27.6028 14.7364 26.9913C14.4831 26.3798 14.1118 25.8242 13.6438 25.3562C13.1758 24.8882 12.6202 24.517 12.0087 24.2637C11.3972 24.0104 10.7419 23.8801 10.08 23.8801C9.41814 23.8801 8.76276 24.0104 8.15128 24.2637C7.53979 24.517 6.98419 24.8882 6.51618 25.3562C6.04817 25.8242 5.67693 26.3798 5.42365 26.9913C5.17036 27.6028 5.04 28.2582 5.04 28.9201H3.36C2.91444 28.9201 2.48712 28.7431 2.17206 28.428C1.857 28.1129 1.68 27.6856 1.68 27.2401V23.0401H2.1C2.32278 23.0401 2.53644 22.9516 2.69397 22.794C2.8515 22.6365 2.94 22.4228 2.94 22.2001V19.2601C3.87936 19.261 4.81018 19.0818 5.682 18.7321L14.259 15.3001C16.0448 14.5846 17.9512 14.218 19.875 14.2201H22.341C24.9715 14.2224 27.5561 14.9088 29.841 16.2121L34.563 18.9121C34.9334 19.1232 35.3407 19.2617 35.763 19.3201L44.163 20.5201C44.6196 20.5896 45.0484 20.7829 45.4028 21.0791C45.7572 21.3753 46.0236 21.763 46.173 22.2001H44.64C44.4172 22.2001 44.2036 22.2886 44.046 22.4461C43.8885 22.6036 43.8 22.8173 43.8 23.0401C43.8 23.2628 43.8885 23.4765 44.046 23.634C44.2036 23.7916 44.4172 23.8801 44.64 23.8801H46.32V27.2401C46.32 27.6856 46.143 28.1129 45.8279 28.428C45.5129 28.7431 45.0856 28.9201 44.64 28.9201Z" fill="#565a5d"/>
<path d="M32.451 20.0431L29.229 18.2011C27.0714 16.9696 24.6303 16.3214 22.146 16.3201H20.124C18.3072 16.3196 16.507 16.6658 14.82 17.3401L11.28 18.7591C10.8957 18.9137 10.5771 19.1972 10.3789 19.5609C10.1807 19.9247 10.1151 20.346 10.1935 20.7528C10.2719 21.1596 10.4893 21.5264 10.8085 21.7905C11.1277 22.0545 11.5288 22.1993 11.943 22.2001H31.878C32.1324 22.1997 32.3796 22.1154 32.5812 21.9602C32.7828 21.805 32.9275 21.5875 32.9928 21.3416C33.0582 21.0957 33.0405 20.8351 32.9425 20.6003C32.8445 20.3655 32.6717 20.1696 32.451 20.0431ZM11.841 20.4361C11.823 20.3491 11.865 20.3341 11.904 20.3161L15.444 18.9001C16.8123 18.351 18.2664 18.0464 19.74 18.0001V20.5201H11.94C11.901 20.5201 11.856 20.5201 11.841 20.4361ZM21.42 20.5201V18.0001H22.146C24.3379 18.0001 26.4918 18.572 28.395 19.6591L29.895 20.5201H21.42Z" fill="#565a5d"/>
<path d="M10.08 30.1799C10.7759 30.1799 11.34 29.6158 11.34 28.9199C11.34 28.224 10.7759 27.6599 10.08 27.6599C9.38413 27.6599 8.82001 28.224 8.82001 28.9199C8.82001 29.6158 9.38413 30.1799 10.08 30.1799Z" fill="#565a5d"/>
<path d="M37.92 30.1799C38.6159 30.1799 39.18 29.6158 39.18 28.9199C39.18 28.224 38.6159 27.6599 37.92 27.6599C37.2241 27.6599 36.66 28.224 36.66 28.9199C36.66 29.6158 37.2241 30.1799 37.92 30.1799Z" fill="#565a5d"/>
</g>
<defs>
<clipPath id="clip0">
<rect width="48" height="48" fill="white"/>
</clipPath>
</defs>
</svg>
