<?xml version="1.0" encoding="UTF-8"?><svg width="48" height="48" viewBox="0 0 48 48" fill="none" xmlns="http://www.w3.org/2000/svg">
<path d="M44.256 19.8001H41.052C40.6287 18.6586 40.0492 17.5813 39.33 16.5991C39.6629 16.0877 39.9367 15.5402 40.146 14.9671C40.621 13.6575 40.7683 12.2516 40.575 10.8721C40.5508 10.6844 40.4638 10.5105 40.3282 10.3787C40.1925 10.2469 40.0162 10.1649 39.828 10.1461C38.4376 9.98637 37.0293 10.1708 35.727 10.6831C34.9914 10.9763 34.3054 11.3811 33.693 11.8831C32.6084 11.3218 31.4721 10.8667 30.3 10.5241C30.3382 10.2577 30.3582 9.98912 30.36 9.72006C30.36 8.19401 29.7537 6.73046 28.6747 5.65137C27.5956 4.57229 26.132 3.96606 24.606 3.96606C23.0799 3.96606 21.6164 4.57229 20.5373 5.65137C19.4582 6.73046 18.852 8.19401 18.852 9.72006C18.8537 9.98812 18.8738 10.2557 18.912 10.5211C12.081 12.5041 7.37997 17.9521 7.37997 24.0001C7.37997 24.2311 7.37997 24.4621 7.40097 24.6901C6.92189 24.5071 6.51022 24.182 6.22119 23.7584C5.93216 23.3348 5.7796 22.8329 5.78397 22.3201C5.78397 22.0973 5.69547 21.8836 5.53794 21.7261C5.38041 21.5686 5.16675 21.4801 4.94397 21.4801C4.72119 21.4801 4.50753 21.5686 4.35 21.7261C4.19247 21.8836 4.10397 22.0973 4.10397 22.3201C4.09743 23.3226 4.45177 24.294 5.10227 25.0569C5.75277 25.8197 6.656 26.3231 7.64697 26.4751C8.28597 29.4751 10.047 32.2381 12.747 34.3531L15.216 40.6861C15.2779 40.8433 15.3857 40.9783 15.5253 41.0735C15.6649 41.1687 15.83 41.2198 15.999 41.2201H20.904C21.1268 41.2201 21.3404 41.1316 21.4979 40.974C21.6555 40.8165 21.744 40.6028 21.744 40.3801V38.0821C23.6349 38.3449 25.5531 38.3449 27.444 38.0821V40.3801C27.444 40.6028 27.5325 40.8165 27.69 40.974C27.8475 41.1316 28.0612 41.2201 28.284 41.2201H33.21C33.379 41.2198 33.544 41.1687 33.6836 41.0735C33.8232 40.9783 33.931 40.8433 33.993 40.6861L36.462 34.3561L44.766 28.0291C44.8685 27.9502 44.9515 27.8489 45.0087 27.7329C45.0659 27.6169 45.0958 27.4894 45.096 27.3601V20.6401C45.096 20.4173 45.0075 20.2036 44.8499 20.0461C44.6924 19.8886 44.4788 19.8001 44.256 19.8001V19.8001ZM24.6 5.52006C25.6967 5.53823 26.7415 5.99057 27.5052 6.7779C28.2689 7.56523 28.6892 8.62329 28.674 9.72006C28.695 10.2682 28.6052 10.815 28.41 11.3276C28.2147 11.8403 27.918 12.3082 27.5376 12.7035C27.1572 13.0987 26.701 13.4132 26.1962 13.628C25.6915 13.8427 25.1485 13.9534 24.6 13.9534C24.0514 13.9534 23.5085 13.8427 23.0037 13.628C22.4989 13.4132 22.0427 13.0987 21.6623 12.7035C21.2819 12.3082 20.9852 11.8403 20.79 11.3276C20.5947 10.815 20.5049 10.2682 20.526 9.72006C20.5107 8.62329 20.931 7.56523 21.6948 6.7779C22.4585 5.99057 23.5032 5.53823 24.6 5.52006V5.52006ZM43.416 26.9431L35.256 33.1621C35.1326 33.2549 35.0379 33.3807 34.983 33.5251L32.637 39.5401H29.136V37.0921C29.136 36.9687 29.1092 36.8469 29.0574 36.735C29.0056 36.6231 28.93 36.5238 28.836 36.4441C28.7406 36.3654 28.629 36.3087 28.5093 36.2781C28.3895 36.2475 28.2644 36.2437 28.143 36.2671C25.8036 36.7081 23.4024 36.7081 21.063 36.2671C20.9416 36.2437 20.8165 36.2475 20.6967 36.2781C20.5769 36.3087 20.4653 36.3654 20.37 36.4441C20.2759 36.5238 20.2003 36.6231 20.1485 36.735C20.0967 36.8469 20.0699 36.9687 20.07 37.0921V39.5401H16.563L14.217 33.5251C14.1621 33.3824 14.0686 33.2577 13.947 33.1651C10.8 30.7531 9.05997 27.4981 9.05997 24.0001C9.05997 18.7051 13.26 13.9141 19.362 12.1381C19.7364 12.9867 20.3071 13.7342 21.027 14.3191C20.4823 14.4402 19.9445 14.5904 19.416 14.7691C19.3084 14.8019 19.2085 14.8561 19.1222 14.9283C19.036 15.0005 18.9651 15.0893 18.9138 15.1894C18.8625 15.2895 18.8318 15.3989 18.8236 15.5111C18.8154 15.6233 18.8298 15.736 18.866 15.8425C18.9022 15.9491 18.9594 16.0472 19.0342 16.1312C19.1091 16.2152 19.2 16.2833 19.3017 16.3315C19.4033 16.3797 19.5136 16.4069 19.626 16.4117C19.7384 16.4164 19.8506 16.3985 19.956 16.3591C22.9736 15.3485 26.2383 15.3485 29.256 16.3591C29.3429 16.3886 29.4341 16.4038 29.526 16.4041C29.7248 16.4038 29.9171 16.3329 30.0686 16.2042C30.2202 16.0754 30.3211 15.8971 30.3535 15.7009C30.3859 15.5047 30.3477 15.3034 30.2456 15.1328C30.1435 14.9622 29.9842 14.8333 29.796 14.7691C29.2674 14.5904 28.7296 14.4402 28.185 14.3191C28.9036 13.7361 29.4733 12.9906 29.847 12.1441C31.0857 12.4993 32.2803 12.9935 33.408 13.6171C33.5632 13.7033 33.7417 13.7382 33.918 13.7166C34.0942 13.695 34.2591 13.6182 34.389 13.4971C34.9545 12.9627 35.6162 12.5402 36.339 12.2521C37.1792 11.9213 38.0761 11.7582 38.979 11.7721C39.0144 12.667 38.8727 13.5601 38.562 14.4001C38.3396 15.0107 38.0227 15.5827 37.623 16.0951C37.5054 16.2431 37.4414 16.4265 37.4414 16.6156C37.4414 16.8046 37.5054 16.988 37.623 17.1361C38.5254 18.2487 39.2113 19.5207 39.645 20.8861C39.6965 21.0588 39.8021 21.2103 39.9464 21.3184C40.0906 21.4264 40.2658 21.4852 40.446 21.4861H43.41L43.416 26.9431Z" fill="#565a5d"/>
<path d="M34.008 22.32C34.9358 22.32 35.688 21.5678 35.688 20.64C35.688 19.7121 34.9358 18.96 34.008 18.96C33.0802 18.96 32.328 19.7121 32.328 20.64C32.328 21.5678 33.0802 22.32 34.008 22.32Z" fill="#565a5d"/>
</svg>
