<?xml version="1.0" encoding="UTF-8"?><svg width="48" height="48" viewBox="0 0 48 48" fill="none" xmlns="http://www.w3.org/2000/svg">
<path d="M41.01 10.23H6.98999C6.77517 10.23 6.56914 10.3153 6.41724 10.4672C6.26533 10.6191 6.17999 10.8252 6.17999 11.04V36.96C6.17999 37.1748 6.26533 37.3808 6.41724 37.5327C6.56914 37.6846 6.77517 37.77 6.98999 37.77H41.01C41.2248 37.77 41.4308 37.6846 41.5828 37.5327C41.7347 37.3808 41.82 37.1748 41.82 36.96V11.04C41.82 10.8252 41.7347 10.6191 41.5828 10.4672C41.4308 10.3153 41.2248 10.23 41.01 10.23V10.23ZM40.2 11.85V15.09H37.308C37.0932 15.09 36.8871 15.1753 36.7352 15.3272C36.5833 15.4791 36.498 15.6852 36.498 15.9C36.498 16.1148 36.5833 16.3208 36.7352 16.4727C36.8871 16.6246 37.0932 16.71 37.308 16.71H40.2V23.19H37.176L32.322 15.468C32.2493 15.3522 32.1484 15.2568 32.0288 15.1907C31.9092 15.1245 31.7747 15.0899 31.638 15.09C31.501 15.0902 31.3662 15.125 31.2461 15.1911C31.126 15.2571 31.0246 15.3524 30.951 15.468L21.453 30.579L17.049 23.568C16.9754 23.4524 16.8739 23.3571 16.7539 23.2911C16.6338 23.225 16.499 23.1902 16.362 23.19C16.2253 23.1899 16.0908 23.2245 15.9712 23.2907C15.8515 23.3568 15.7507 23.4522 15.678 23.568L10.824 31.29H7.79999V24.81H10.692C10.9068 24.81 11.1128 24.7246 11.2647 24.5727C11.4167 24.4208 11.502 24.2148 11.502 24C11.502 23.7852 11.4167 23.5791 11.2647 23.4272C11.1128 23.2753 10.9068 23.19 10.692 23.19H7.79999V16.71H25.968C26.1828 16.71 26.3888 16.6246 26.5407 16.4727C26.6927 16.3208 26.778 16.1148 26.778 15.9C26.778 15.6852 26.6927 15.4791 26.5407 15.3272C26.3888 15.1753 26.1828 15.09 25.968 15.09H7.79999V11.85H40.2ZM7.79999 36.15V32.91H11.271C11.408 32.9097 11.5428 32.875 11.6629 32.8089C11.7829 32.7428 11.8844 32.6476 11.958 32.532L16.362 25.521L20.769 32.532C20.8419 32.6479 20.9431 32.7434 21.063 32.8096C21.1828 32.8758 21.3176 32.9105 21.4545 32.9105C21.5914 32.9105 21.7261 32.8758 21.846 32.8096C21.9659 32.7434 22.067 32.6479 22.14 32.532L31.638 17.421L36.042 24.432C36.1156 24.5476 36.217 24.6428 36.3371 24.7089C36.4572 24.775 36.592 24.8097 36.729 24.81H40.2V31.29H27.123C26.9082 31.29 26.7021 31.3753 26.5502 31.5272C26.3983 31.6791 26.313 31.8852 26.313 32.1C26.313 32.3148 26.3983 32.5208 26.5502 32.6727C26.7021 32.8246 26.9082 32.91 27.123 32.91H40.2V36.15H7.79999Z" fill="#565a5d"/>
</svg>
