<svg id="Icons" xmlns="http://www.w3.org/2000/svg" width="48" height="48" viewBox="0 0 48 48"><rect width="48" height="48" fill="none"/><path d="M35.34,10.8427H32.4V9.9653a.84.84,0,0,0-.84-.84H29.04v-5.04H27.36v5.04H20.64v-5.04H18.96v5.04H16.44a.84.84,0,0,0-.84.84v.8774H12.66a.8026.8026,0,0,0-.8027.8026v30.24a.8026.8026,0,0,0,.8027.8027h8.4V35.1653h5.88V42.688h8.4a.8026.8026,0,0,0,.8027-.8027v-30.24A.8026.8026,0,0,0,35.34,10.8427Zm-.8027,7.5226H28.62V12.448h5.9173Zm-5.9173,7.56v-5.88h5.9173v5.88Zm5.9173,1.68v5.88H28.62v-5.88Zm-21.0746-1.68v-5.88H19.38v5.88Zm5.9173,1.68v5.88H13.4627v-5.88Zm1.68-7.56h5.88v5.88H21.06Zm5.88-7.5973v5.9173H21.06V12.448Zm-7.56,0v5.9173H13.4627V12.448Zm0,28.6347H13.4627V35.1653H19.38Zm1.68-7.5974v-5.88h5.88v5.88Zm7.56,7.5974V35.1653h5.9173v5.9174Z" fill="#565a5d"/></svg>