<svg xmlns="http://www.w3.org/2000/svg" width="48" height="48" viewBox="0 0 48 48"><path d="M40.079,16.243A22.68,22.68,0,0,0,1.362,32.219a.84.84,0,0,0,.84.842h5.88a.839.839,0,0,0,.84-.837,15.12,15.12,0,0,1,30.239,0,.841.841,0,0,0,.84.837h5.881a.842.842,0,0,0,.84-.842A22.535,22.535,0,0,0,40.079,16.243ZM23.2,11.3V15.5a16.662,16.662,0,0,0-10.431,4.32L9.8,16.848A20.834,20.834,0,0,1,23.2,11.3ZM7.266,31.381h-4.2A20.842,20.842,0,0,1,8.61,18.036l2.973,2.973A16.671,16.671,0,0,0,7.266,31.381ZM24.882,11.3a20.834,20.834,0,0,1,13.4,5.552l-2.973,2.973A16.662,16.662,0,0,0,24.882,15.5ZM40.818,31.381A16.671,16.671,0,0,0,36.5,21.009l1.486-1.486,1.486-1.487a20.838,20.838,0,0,1,5.55,13.345Z" fill="#565a5d"/><path d="M26.679,31.525h0L24.4,22.112a.42.42,0,0,0-.817.005l-2.187,9.436h0a2.582,2.582,0,0,0,.214,1.872,2.765,2.765,0,0,0,2.129,1.51,2.722,2.722,0,0,0,2.938-3.41Z" fill="#565a5d"/></svg>