<?xml version="1.0" encoding="UTF-8"?><svg width="48" height="48" viewBox="0 0 48 48" fill="none" xmlns="http://www.w3.org/2000/svg">
<path d="M40.8 36.4439H7.19999C6.53189 36.4431 5.89138 36.1773 5.41896 35.7049C4.94654 35.2325 4.68079 34.592 4.67999 33.9239V13.7639C4.68079 13.0958 4.94654 12.4553 5.41896 11.9829C5.89138 11.5104 6.53189 11.2447 7.19999 11.2439H40.8C41.4681 11.2447 42.1086 11.5104 42.581 11.9829C43.0534 12.4553 43.3192 13.0958 43.32 13.7639V33.9239C43.3192 34.592 43.0534 35.2325 42.581 35.7049C42.1086 36.1773 41.4681 36.4431 40.8 36.4439V36.4439ZM7.19999 12.9239C6.97745 12.9247 6.76426 13.0134 6.6069 13.1708C6.44954 13.3282 6.36078 13.5414 6.35999 13.7639V33.9239C6.36078 34.1464 6.44954 34.3596 6.6069 34.517C6.76426 34.6744 6.97745 34.7631 7.19999 34.7639H40.8C41.0225 34.7631 41.2357 34.6744 41.3931 34.517C41.5505 34.3596 41.6392 34.1464 41.64 33.9239V13.7639C41.6392 13.5414 41.5505 13.3282 41.3931 13.1708C41.2357 13.0134 41.0225 12.9247 40.8 12.9239H7.19999Z" fill="#565a5d"/>
<path d="M26.52 31.4041H9.72001C9.60969 31.4041 9.50046 31.3824 9.39855 31.3402C9.29664 31.298 9.20404 31.2361 9.12604 31.1581C9.04803 31.0801 8.98616 30.9875 8.94395 30.8856C8.90173 30.7837 8.88 30.6744 8.88 30.5641C8.88 30.4538 8.90173 30.3446 8.94395 30.2427C8.98616 30.1408 9.04803 30.0482 9.12604 29.9702C9.20404 29.8921 9.29664 29.8303 9.39855 29.7881C9.50046 29.7458 9.60969 29.7241 9.72001 29.7241H26.52C26.6303 29.7241 26.7395 29.7458 26.8415 29.7881C26.9434 29.8303 27.036 29.8921 27.114 29.9702C27.192 30.0482 27.2539 30.1408 27.2961 30.2427C27.3383 30.3446 27.36 30.4538 27.36 30.5641C27.36 30.6744 27.3383 30.7837 27.2961 30.8856C27.2539 30.9875 27.192 31.0801 27.114 31.1581C27.036 31.2361 26.9434 31.298 26.8415 31.3402C26.7395 31.3824 26.6303 31.4041 26.52 31.4041V31.4041Z" fill="#565a5d"/>
<path d="M14.76 27.204H10.56C10.1144 27.204 9.68713 27.027 9.37207 26.7119C9.057 26.3969 8.88 25.9695 8.88 25.524V23.004C8.88 22.5584 9.057 22.1311 9.37207 21.816C9.68713 21.501 10.1144 21.324 10.56 21.324H14.76C15.2056 21.324 15.6329 21.501 15.9479 21.816C16.263 22.1311 16.44 22.5584 16.44 23.004V25.524C16.44 25.9695 16.263 26.3969 15.9479 26.7119C15.6329 27.027 15.2056 27.204 14.76 27.204ZM10.56 23.004V25.524H14.76V23.004H10.56Z" fill="#565a5d"/>
</svg>
