<svg width="24" height="24" viewBox="0 0 24 24" fill="none" xmlns="http://www.w3.org/2000/svg">
<rect x="0.5" y="0.5" width="23" height="23" rx="11.5" fill="white"/>
<rect x="0.5" y="0.5" width="23" height="23" rx="11.5" stroke="#BCBCBC"/>
<path d="M10.8716 7.02734H8.17406C8.07658 7.02734 7.99756 7.10637 7.99756 7.20384V16.8293C7.99756 16.9268 8.07658 17.0058 8.17406 17.0058H10.8716C10.969 17.0058 11.0481 16.9268 11.0481 16.8293V7.20384C11.0481 7.10637 10.969 7.02734 10.8716 7.02734Z" fill="#BCBCBC"/>
<path d="M16.0014 7.02734H13.3039C13.2065 7.02734 13.1274 7.10637 13.1274 7.20384V16.8293C13.1274 16.9268 13.2065 17.0058 13.3039 17.0058H16.0014C16.0989 17.0058 16.1779 16.9268 16.1779 16.8293V7.20384C16.1779 7.10637 16.0989 7.02734 16.0014 7.02734Z" fill="#BCBCBC"/>
</svg>
