<svg width="24" height="24" viewBox="0 0 24 24" fill="none" xmlns="http://www.w3.org/2000/svg">
<rect x="0.5" y="0.5" width="23" height="23" rx="11.5" fill="#0F1D32"/>
<rect x="0.5" y="0.5" width="23" height="23" rx="11.5" stroke="#8093AA"/>
<path d="M10.8716 7.0275H8.17406C8.07658 7.0275 7.99756 7.10652 7.99756 7.204V16.8295C7.99756 16.927 8.07658 17.006 8.17406 17.006H10.8716C10.969 17.006 11.0481 16.927 11.0481 16.8295V7.204C11.0481 7.10652 10.969 7.0275 10.8716 7.0275Z" fill="#8093AA"/>
<path d="M16.0014 7.02753H13.3039C13.2065 7.02753 13.1274 7.10655 13.1274 7.20403V16.8295C13.1274 16.927 13.2065 17.006 13.3039 17.006H16.0014C16.0989 17.006 16.1779 16.927 16.1779 16.8295V7.20403C16.1779 7.10655 16.0989 7.02753 16.0014 7.02753Z" fill="#8093AA"/>
</svg>
