<svg xmlns="http://www.w3.org/2000/svg" width="21" height="21" viewBox="0 0 21 21" fill="none">
<path d="M10.7 20.5C16.1 20.5 20.4 16.1 20.4 10.8C20.4 5.5 16.1 1 10.7 1C5.3 1 1 5.4 1 10.7C1 16 5.4 20.5 10.7 20.5Z" stroke="#005CB9" stroke-miterlimit="10"/>
<path d="M10.4 13.9C10.7 13.9 10.9 14 11.1 14.2C11.3 14.4 11.4 14.6 11.4 15C11.4 15.4 11.3 15.5 11.1 15.7C11 15.9 10.7 16 10.4 16C10.1 16 9.9 15.9 9.7 15.7C9.5 15.5 9.5 15.2 9.5 14.9C9.5 14.3 9.8 13.9 10.4 13.9ZM10.9 6C11.8 6 12.5 6.2 13 6.6C13.5 7 13.8 7.6 13.8 8.3C13.8 8.6 13.7 8.9 13.6 9.2C13.4 9.5 13.2 9.7 13.1 10C12.9 10.2 12.6 10.5 12.1 10.9C11.6 11.2 11.4 11.5 11.2 11.7C11.1 11.9 11 12.2 11 12.6V12.9H9.7V12.4C9.7 11.9 9.8 11.5 10 11.2C10.2 10.9 10.5 10.6 10.9 10.2C11.4 9.8 11.8 9.4 11.9 9.2C12.1 9 12.2 8.8 12.2 8.4C12.2 8 12.1 7.8 11.8 7.5C11.5 7.4 11.2 7.3 10.7 7.3C10.3 7.3 9.9 7.4 9.6 7.5C9.2 7.6 8.9 7.8 8.6 7.9L8 6.8C8.9 6.3 9.8 6 10.9 6Z" fill="#005CB9"/>
<mask id="mask0_761_2550" style="mask-type:luminance" maskUnits="userSpaceOnUse" x="8" y="6" width="6" height="10">
<path d="M10.4 13.9C10.7 13.9 10.9 14 11.1 14.2C11.3 14.4 11.4 14.6 11.4 15C11.4 15.4 11.3 15.5 11.1 15.7C11 15.9 10.7 16 10.4 16C10.1 16 9.9 15.9 9.7 15.7C9.5 15.5 9.5 15.2 9.5 14.9C9.5 14.3 9.8 13.9 10.4 13.9ZM10.9 6C11.8 6 12.5 6.2 13 6.6C13.5 7 13.8 7.6 13.8 8.3C13.8 8.6 13.7 8.9 13.6 9.2C13.4 9.5 13.2 9.7 13.1 10C12.9 10.2 12.6 10.5 12.1 10.9C11.6 11.2 11.4 11.5 11.2 11.7C11.1 11.9 11 12.2 11 12.6V12.9H9.7V12.4C9.7 11.9 9.8 11.5 10 11.2C10.2 10.9 10.5 10.6 10.9 10.2C11.4 9.8 11.8 9.4 11.9 9.2C12.1 9 12.2 8.8 12.2 8.4C12.2 8 12.1 7.8 11.8 7.5C11.5 7.4 11.2 7.3 10.7 7.3C10.3 7.3 9.9 7.4 9.6 7.5C9.2 7.6 8.9 7.8 8.6 7.9L8 6.8C8.9 6.3 9.8 6 10.9 6Z" fill="white"/>
</mask>
<g mask="url(#mask0_761_2550)">
<path d="M8 6H13.7V16H8V6Z" fill="#005CB9"/>
</g>
</svg>